<svg xmlns="http://www.w3.org/2000/svg" viewBox="0 0 64 64">
  <defs>
    <linearGradient id="g" x1="0" x2="1" y1="0" y2="1">
      <stop offset="0" stop-color="#7c3aed"/>
      <stop offset="1" stop-color="#a855f7"/>
    </linearGradient>
  </defs>
  <circle cx="32" cy="32" r="30" fill="url(#g)"/>
  <path d="M24 18h16l-2 14a8 8 0 0 1-12 0l-2-14zM32 44c4 0 8 2 8 4v2H24v-2c0-2 4-4 8-4z" fill="#fff"/>
</svg>
<svg xmlns="http://www.w3.org/2000/svg" viewBox="0 0 64 64" role="img" aria-label="Pourtrait favicon">
  <defs>
    <linearGradient id="p" x1="0" y1="0" x2="0" y2="1">
      <stop offset="0" stop-color="#7C3AED"/>
      <stop offset="1" stop-color="#5B21B6"/>
    </linearGradient>
  </defs>
  <rect width="64" height="64" rx="14" fill="url(#p)"/>
  <path d="M20 16h24c-2 15-10 22-18 26v10h10" fill="none" stroke="#fff" stroke-width="4" stroke-linecap="round"/>
  <path d="M22 16c0 12 20 12 20 0" fill="none" stroke="#fff" stroke-width="4" stroke-linecap="round"/>
</svg>

